<svg id="svg4932" xmlns="http://www.w3.org/2000/svg" xmlns:xlink="http://www.w3.org/1999/xlink" viewBox="0 0 512 512"><defs><style>.cls-1{fill:#fff;}.cls-10,.cls-11,.cls-12,.cls-13,.cls-16,.cls-17,.cls-2,.cls-4,.cls-5,.cls-6,.cls-7,.cls-8,.cls-9{fill:#6c3;}.cls-2{opacity:0.3;}.cls-3{fill:#ff9;stroke:#816647;stroke-width:1.35px;}.cls-10,.cls-11,.cls-12,.cls-13,.cls-16,.cls-17,.cls-19,.cls-21,.cls-22,.cls-23,.cls-26,.cls-28,.cls-4,.cls-5,.cls-6,.cls-7,.cls-8,.cls-9{stroke:#015a01;}.cls-16,.cls-22,.cls-4{stroke-miterlimit:7.69;}.cls-4{stroke-width:0.93px;}.cls-5{stroke-miterlimit:7.83;stroke-width:0.93px;}.cls-6{stroke-width:0.46px;}.cls-7{stroke-width:0.47px;}.cls-8{stroke-width:0.44px;}.cls-9{stroke-width:0.42px;}.cls-10{stroke-width:0.43px;}.cls-11{stroke-miterlimit:9.12;stroke-width:0.93px;}.cls-12{stroke-miterlimit:9.12;stroke-width:0.93px;}.cls-13{stroke-miterlimit:7.69;stroke-width:0.93px;}.cls-14{fill:url(#linear-gradient);}.cls-15{fill:url(#linear-gradient-2);}.cls-16,.cls-22,.cls-23,.cls-24,.cls-26,.cls-28{stroke-width:1.04px;}.cls-17,.cls-21{stroke-width:0.54px;}.cls-18{stroke:#333;stroke-width:0.77px;fill:url(#linear-gradient-3);}.cls-19{fill:none;stroke-width:0.93px;}.cls-20{opacity:0.45;}.cls-21,.cls-22{fill:#060;opacity:0.33;}.cls-21,.cls-22,.cls-23,.cls-28,.cls-29{isolation:isolate;}.cls-23{fill:#015a01;opacity:0.57;}.cls-24,.cls-25{fill:#474747;}.cls-24{stroke:#424242;}.cls-25{stroke:#3c3c3c;stroke-width:1.53px;}.cls-26{fill:#eee;}.cls-27,.cls-30{fill:#212121;stroke-width:1.76px;}.cls-27{stroke:url(#linear-gradient-4);}.cls-28{fill:#2f5a01;stroke-opacity:0.46;opacity:0.16;}.cls-29{fill:#816647;opacity:0.22;}.cls-30{stroke:url(#linear-gradient-5);}</style><linearGradient id="linear-gradient" x1="20.57" y1="350.29" x2="97.25" y2="331.94" gradientTransform="matrix(1.92, 0, 0, -1.92, 123.09, 800.32)" gradientUnits="userSpaceOnUse"><stop offset="0" stop-color="#6d5744"/><stop offset="1" stop-color="#6d5744" stop-opacity="0"/></linearGradient><linearGradient id="linear-gradient-2" x1="46.28" y1="228.98" x2="83.22" y2="185.68" xlink:href="#linear-gradient"/><linearGradient id="linear-gradient-3" x1="288.19" y1="412.9" x2="286.21" y2="422.7" gradientTransform="matrix(1, 0, 0, -1, 0, 512)" gradientUnits="userSpaceOnUse"><stop offset="0" stop-color="#212121"/><stop offset="1" stop-color="#212121" stop-opacity="0"/></linearGradient><linearGradient id="linear-gradient-4" x1="98.73" y1="359.92" x2="103.32" y2="359.92" gradientTransform="matrix(1.92, 0, 0, -1.92, 72.47, 766.85)" gradientUnits="userSpaceOnUse"><stop offset="0" stop-color="#60c"/><stop offset="1" stop-color="#60c" stop-opacity="0"/></linearGradient><linearGradient id="linear-gradient-5" x1="91.96" y1="358.07" x2="96.55" y2="358.07" gradientTransform="matrix(1.92, 0, 0, -1.92, 100.74, 759.12)" xlink:href="#linear-gradient-4"/></defs><circle class="cls-1" cx="256" cy="256" r="256"/><circle class="cls-2" cx="256" cy="256" r="256"/><path id="path3881-5" class="cls-3" d="M286.51,173c-7.52,1.17-16.18,3.84-21.62,8.36,2.68,12.81,14.19-2.08,22.5.61C298,180.91,293.47,170.68,286.51,173Z"/><path id="path3881-8" class="cls-3" d="M280.08,153.15c-7.6-.23-16.61.8-22.78,4.25.28,13.07,14.33.56,22,4.73C289.88,163,287.35,152.13,280.08,153.15Z"/><path id="path3881" class="cls-3" d="M301.78,193.15c-7.48,1.34-16.08,4.23-21.4,8.89,3,12.73,14.13-2.44,22.51,0C313.42,200.75,308.68,190.64,301.78,193.15Z"/><path id="path3879" class="cls-3" d="M315.07,218.07c-7.81-2.76-24.46,10.47-10.4,12.17,4.49-4.61,11.38-2.87,17.55-3.92C329.66,220.71,320.29,216.83,315.07,218.07Z"/><path id="path3877" class="cls-3" d="M337.44,305.94c-10.45,3.34,0,11,6.56,8.63,4.75.05,9.59-.23,14.21.38,8-4.48-1.63-11-7.35-9Z"/><path id="path3875" class="cls-3" d="M354.79,346c-8.93-4.2-16.55,10.19-4.3,8.76,6-1.66,16.43,3.27,18.89-4.45C368.48,343.27,359.24,347.11,354.79,346Z"/><path id="path3873" class="cls-3" d="M337.21,386.13c-12.44,6.05,10.86,13.29,10.48,15.72,2.7,4.35,2.92,6.24,5.17,7.39,10.23,2.19,5.24-10.08.44-13.51-4.46-4.53-9.61-8.5-16.09-9.6Z"/><path id="path3871" class="cls-3" d="M350.8,406.56l0,.13Z"/><path id="path4272" class="cls-3" d="M309,429.22c-11.35,4,2.6,11.1,8,12.78-1.59,6.79,8.05,16.13,9.76,5.25C327.74,436.37,318.15,431.29,309,429.22Z"/><g id="g5904"><path id="path4269" class="cls-4" d="M202.08,453.78c-15.57,10.2-35.24,3.68-43.94-14.58s-3.14-41.33,12.43-51.53a28.14,28.14,0,0,1,30.23-.8"/><path id="path4267" class="cls-5" d="M175.25,415.41c2.64-21.19,20.76-35.56,40.47-32.09s33.53,23.46,30.89,44.65-20.77,35.56-40.47,32.1a35.35,35.35,0,0,1-13.36-5.37"/><path id="path4265" class="cls-6" d="M199.39,420.67c-7.49-21.11,7.2-39.05,32.8-40.06s52.43,15.27,59.92,36.38-7.19,39.05-32.8,40.06a65.55,65.55,0,0,1-28.12-5.45"/><path id="path4227-5-0" class="cls-7" d="M218.75,390.48c5.21-17.63,31.79-23.47,59.38-13.05s45.73,33.15,40.53,50.78c-3.53,11.94-17.2,19-35.43,18.15"/><path id="path4227-5" class="cls-8" d="M243.93,407.33C224.62,389.86,227.8,369,251,360.68s57.68-.84,77,16.63,16.12,38.36-7.09,46.65c-1.34.48-2.73.91-4.16,1.29"/><path id="path4227" class="cls-9" d="M241.33,371.44c-5.19-20.1,15.14-39.18,45.41-42.63s59,10.05,64.22,30.15c3,11.47-2.39,23.18-14.43,31.63"/><path id="path4225-2" class="cls-10" d="M275.48,375c-27.64-6.86-40.25-25.17-28.17-40.87s44.3-22.88,71.95-16c26.62,6.62,39.47,23.91,29.25,39.37"/><path id="path3418-9" class="cls-4" d="M341.19,331.17c5.12-9.35,1.72-18-7.91-25.39,6.3-18.31-9-62.4-36.35-95.26a15.46,15.46,0,0,0-5.84-4.15c-6.42-23.27-27.13-29.62-45.52-24.48-24.69,6.89-46.4,13.58-46.4,30.35,0,8.75,5.66,16.63,14.72,22.18-.32.7-.62,1.41-.88,2.14-6.72,28.84,16.71,67.81,27,79.63.15.17.31.32.46.49-5.79,13.92,6.86,28.56,30.87,34.21"/><path id="path3418-54" class="cls-11" d="M201.37,204.75c-17.33-11-17.75-30.84-.93-44.31S245,145,262.29,156c11.58,7.35,16,19.06,11.59,30.46"/><path id="path3418-5" class="cls-12" d="M193.47,170.22c-15.9-13.34-13.95-33.55,4.35-45.13s46-10.17,61.94,3.17c11.67,9.79,14.08,23.73,6.11,35.32"/><path id="path3418" class="cls-12" d="M211.92,152.92c-22.29-7.11-32.62-26.32-23.07-42.91s35.36-24.28,57.65-17.17,32.62,26.32,23.07,42.91a31.92,31.92,0,0,1-4.49,6"/><path id="path3416" class="cls-13" d="M218.86,133.08c-22.37-13.79-26.41-42.88-9-65s49.6-28.84,72-15.05,26.42,42.89,9,65a58.39,58.39,0,0,1-21.93,17"/></g><path id="path5079" class="cls-14" d="M247.79,46.91A59.45,59.45,0,0,0,220.2,58.1c2,5.63,4.61,10.49,4.19,16.85,3.33,1.85,3.76.41,4.69,4.68-3,.73,6.55,2.15,9,1.72,6.93-3.44,1.06-12.94,3-19-.63-6.82,2.25-10,6.77-15.47Zm-6.29,9.21C240.92,57.11,242.61,56.15,241.5,56.12Zm-29.37,9.31A48.42,48.42,0,0,0,198.86,94.9c3,3.62,5.43,7.58,12.81,6.88,6.92-.33,13.56,7.32,20.53,2,.3-5.76-6.38-10.9-11.53-13-5.83-3-5-9.62-6.11-13.21-2.42-4.12-.65-2.45-2.18-7.78A25.17,25.17,0,0,1,212.13,65.43ZM191,107a25.54,25.54,0,0,0-3.5,27.6c-4.55,6.4-7.16,15.61-3.44,22.94,4.68,5.05,8.38,10.13,12.9,15,2.78,2.28,16.16.72,12.35-5.06,2-5.26,6.25-2.52,11-3-.48-3.74-7.08-11.54-2-11.47-2.86-.26-5.63.49-9-.36-1.25.63-6.34,2.14-9.06,3.86-1.52-2.36-5.14-4.87-7.55-7.17,3.41-3.74,6.77-6.14,10-12.06-.77-5.95.76-12.91-2.67-18.62-2.37-4.31-5.15-8.77-9.14-11.67Zm11.35,16C200.94,124,203.76,123.58,202.33,122.92Zm17.84.68c-4.3,4.63-7.34-.35-12.2,3.69-4,3.54-4.29,9.81.42,12.68,2.19,1.32,4.39,7,6.46,2.6,1.89-.12,3.29-.4,6.68-3.38,4.38-1.42,9.09-5,4.28-6.32-.93,1.39-.9-1.07-2.3-2.11C222.29,132,222.94,124.7,220.17,123.6Zm5.22,8.17C222.9,134.11,227.09,132.43,225.39,131.77Zm-6.46,11c3.37,1.64,9.3,0,2.39.16A11.31,11.31,0,0,1,218.93,142.79Zm6.59.26C225.2,144.83,226.54,143.39,225.52,143.05Zm-30.22,8C194.84,151.58,196.13,151.2,195.3,151.09ZM218.87,153C217.48,153.78,219.93,153,218.87,153Zm.23.06C218.79,153.38,219.79,153.2,219.1,153Zm-7.36,11.28C211,164.44,212.17,164.94,211.74,164.32Zm2.1.23C212,166.39,216.39,164.71,213.84,164.55ZM193,175.41c-9.06,1.24-5.91,17,1.52,18,3,5,10.65,7.39,13.24,13.3,6.86,2.22,12.16-4.25,11-10.79,4.71.69,12.25-3.69,11-9.89-6.43-.12-12.27-1.41-18.13,1.48-8.57,1.46-14-6.41-18.64-12.09Zm24.29,8.08C216,185.14,218.3,184.29,217.25,183.49Zm-.42.81C216.27,182.57,215.27,186.23,216.83,184.3Zm1.42-.81C216.56,184.52,221.26,184,218.25,183.49Zm.46.91C217.89,185.21,220.69,184.77,218.71,184.4Zm12.06,2.3C229.65,187.87,232.28,188.83,230.77,186.7Zm1,22.89C231.24,211,234,210.82,231.81,209.59Zm-32.82.26c-1.68,10.43,6,19.91,14.4,25.06-3.92,8.08,13.41,2.48,12.15-4-1.9-2.38-1.94-4.55-3.59-6.6,5.58.12,10.07-.39,15.82-4.08,5.69-.27-5.08-10.27-7.86-9.43-4,3.62-10.2,1.71-14.41,6.18A40.87,40.87,0,0,0,199,209.85Zm27.31,14.69C225.21,225,228,225.51,226.3,224.54Zm-.43,4.44C222.7,230.35,227.54,229.62,225.87,229Z"/><path id="path5255" class="cls-15" d="M264.46,317.22c-3.17,1.65-11.74,2-11.39,4.07,3.61,1.64-5.25,1.24-1.65-.82-3.26,2-2.36-.6-3.76,2.43-2.34-.32-1-4.63-5-1.48-6.6,3.38-2,10.87,1.43,14.89,1.44,3.31,8.51-3.57,9.2,2.45,4.32-1.34,8.51-1.18,13.42-3,4-.31,6.79,5.89,8.4,3.21,3.89-.57,2.45,3.83,5,.14,2.82-3.82,5.87-11.66,2.62-11.36-1.47-1.11-2.32-5.09,0-1.62,2.32-1.47.08-2.42,3.7-2.42,2.48-2.42-5.78,1.37-2.08-1.34-4.82.43,4.11-2.46-2.54-1.91-4.45-.81-14.2.64-15.3-1,3.56-2.34-2.53,1.06-2.1-2.21Zm-16.28,3.7C248,319.52,246.68,320.6,248.18,320.92ZM268.9,318C265.91,320.25,270.88,319.85,268.9,318Zm-19,1.75c-3,1.08,1.87,1.44,0,0Zm-2.43,1.1C245.56,321.64,250.38,323.07,247.5,320.89Zm-.91.29C246.13,321.81,247.11,322.26,246.59,321.18Zm37.65,5.55C282.42,327.31,285.62,327.68,284.24,326.73Zm.42,6.71c.89,2.23,1.77,4.47,2.66,6.71C286.67,337.84,286.42,335.24,284.66,333.44Zm-35.47,14.88c-2.85,2.72-7.22,4.36-7.78,8.76-2.71,5,.4,11.25,4.91,12.25,2.27,5.17,9.45,4.14,12.14,8.81,5.88,1.43,14.39.26,15-7.15,3.25-8.8,7.05,5.24,12.34,5.27,2.66-.82,4-1.11,5.73.69,1.74-1.42,4.73-.66,6.79-3.21,1.3-.74,3-5.46-.8-7-3.26-2.58-6-12-10.4-6.26-1.18-1.66-5.8-3.55-5.29-.21-3.2,2.61-5.74,0-3.13-2.66-6.46,1-12.43-.31-18.87-.21-3,.81-7.74.69-3.66-2.41-1.87-2.69-5.87-3.44-7-6.65Zm9.59,7.07C253.06,356.63,262.76,356.91,258.78,355.39Zm27.6,2.59C285.38,359.19,288.61,358.89,286.38,358Zm1.17.72C286.35,360.86,289.17,359,287.55,358.7ZM246,370C244.39,370.62,246.82,371.23,246,370Zm55.12,1.23C301.48,372.79,303.74,372.11,301.1,371.18Zm-67.93,3.6c-4.38,3-11.17,5.31-13.42,9.76a50.73,50.73,0,0,1,6.77,12.78c2,.8,6.61,6.43,5.51,3.85-1.37-1.83,5.6,3.46,1.38,1.1-1.88,3,3.73,8,7,3.61,1.82-1.37,6.27-3.71,2.84,0-3.32,7.7,6.34,12.9,11.8,12.58-.85,2.72,7.1,1.8,5.48-2,5.28,3.34,5.42-6.79,6.56-10.21l1.68-7.17c-1,1.36-4.93.18-4.86,1-2.66-2.22-7.27,1.85-9-.09-3.74-.83-4.88-4.05-5.25-7-4.36.31-2,.33-.85-2.43-3.16-.17-7.46-1-6.55-3.84-6.15-2.51-1.19-8.12-5.83-11.48a11.07,11.07,0,0,0-3.24-.44Zm-24.25,6.94c-4.64-.54-4.06,3.22-7.14,1.59-5.47,3.1-10.86-1.49-16.68-.75-15.72.14-27.55,15.69-30.14,30.43-4,7.42,2.88-.26,7.36-1.19-1.17-6.57,8.4-13.58,8.41-7.54-1.38,2.68.31,19.37,5.06,22.88,3.05,4,8.55,4,9.07-1.81,1.6-4.29,5.43-7.72,7-9.79-3.61,1.91-2-3.73-4.25-5,3.64-3.37-1.88-13.75.52-16.5,1,.45,10.37-5.52,9.75,2,.63,1.91-4.38,2.77-1.09,4.54-4.13,2.52,1.86,2.91-1.85,5.13,1.76,2.91,3.24,5.3,1.17,8.1,2.89,1.56-.46,2.68,1.33,5.32,1,2.12,3.37.42.74,2.92-.73,4.53,6.7,6.11,5,10,4.59,1.69,9.31,8.05,11.68.63,2.36-3.58,4.84-7.1,7.24-10.66-1.84.9-3.76-1.09-5.6-1.78,1.71-4-4.09-5.76-2.37-10.09,1.09-3-1.59-8.08.75-8.33-2-1.56,1.27.35-.23-2.34,2.06-1-.71-3.84,3-3.82-2.57-4.05,3.93-2.53,1.65-5.8-3.41-1.73,6-7.78-.55-6.49-1.93-.25-7.93-1.78-9.88-1.75Zm36.89,6.78C242.8,388.94,245.24,389.94,245.81,388.5Zm-57.48,5.8C186.64,395.65,189.69,395.37,188.33,394.3Zm-.1,1.17C186.77,395.59,190.17,396.67,188.23,395.47ZM251,396.54C250.64,397.65,251.8,396.8,251,396.54Zm-17.87,5C232.51,402.1,233.59,401.91,233.1,401.53Zm-40.85,16.08C192.36,418.51,192.16,417.9,192.25,417.61Zm.71,0C193.22,418.22,192.86,417.72,193,417.65Zm60.83,1.16C251.75,419.53,255.45,420.27,253.79,418.81Z"/><g id="g5899"><path id="path3355" class="cls-16" d="M300.14,94.88c2.14,13.64-6.89,17.57-11.38,16.6"/><path id="path4593" class="cls-17" d="M291.63,96.48C289.79,105.13,281,110.72,272,109a16.41,16.41,0,0,1-12.58-11"/><path id="path4595" class="cls-17" d="M297.92,73.11c6.37,3.2,9.31,11.86,6.58,19.33-2.55,7-9.18,10.52-15.33,8.22"/></g><path id="path4619" class="cls-18" d="M292.16,90.36a5.89,5.89,0,0,1,.82,9.06,8,8,0,0,1-10.32.72,5.9,5.9,0,0,1-1.77-7.81"/><path id="path4564" class="cls-19" d="M212.94,233.63c4.65,2.12,13.54,1.08,25-1.93"/><path id="path4564-1" class="cls-19" d="M200.3,204c4.66,2.13,15.59,3.12,27.08.12"/><path id="path4564-7" class="cls-19" d="M192.14,169.41c6.7,4.17,8.58,5.83,17.32,6.38"/><g id="g3342" class="cls-20"><path id="path3320" class="cls-21" d="M257.43,90.69c5,6.82,4.1,15.24-2.11,18.79s-15.33.89-20.37-5.94l0,0c-5-6.83-4.08-15.23,2.13-18.78s15.34-.87,20.37,6Z"/><path id="path3320-7" class="cls-22" d="M240.79,87.41c-10.79,8.16,3.3,26.76,16,20.81C268.69,100.48,253.45,80.27,240.79,87.41Z"/></g><path id="path4211-6" class="cls-23" d="M279.14,61.56c-4.15.27-8,2.53-8.14,7.33a11.88,11.88,0,0,0,.26,1.79,17.07,17.07,0,0,0-6.13-4.22c-6.06-3.4-17.31-2.1-17.6,6.52.68,10.89,16.17,18.4,25,11.7a7.77,7.77,0,0,0,2.31-7.81c4.66,4.68,12.57,6.54,17.76,2.46,5.69-5.65-.67-14-6.35-16.24a12.87,12.87,0,0,0-7.07-1.53Z"/><path id="rect3395" class="cls-24" d="M252,43.06a2.13,2.13,0,0,1,2.8,1.12A41.81,41.81,0,0,0,261,57.67c1.16,3.48-3.47,4.7-4.72,2.16,0,0-.52-5.73-6.18-13.49S250.42,43.79,252,43.06Z"/><path id="path3415" class="cls-25" d="M257,41.06a6.33,6.33,0,1,1-12.66,0v0A6.33,6.33,0,0,1,257,41Z"/><path id="path4211" class="cls-26" d="M273.06,82.26c-1.87,3.81-8.07,4.6-13.83,1.76s-8.92-8.23-7-12,7-1.8,13.84-1.76c6.42,0,8.91,8.22,7,12Z"/><path id="path4211-0" class="cls-26" d="M292.89,77.07c-1.58,3.31-6.8,4-11.66,1.53s-7.51-7.16-5.93-10.47,5.6-2,11.66-1.54C292.39,67,294.47,73.75,292.89,77.07Z"/><path id="path4292" class="cls-27" d="M270.34,74.5a3.54,3.54,0,0,1-7.07,0h0a3.54,3.54,0,0,1,7.07,0Z"/><path id="path4239" class="cls-28" d="M288.31,120.59c-35.88-.07-22.39,8.12-47.66,12-14.56,6.67,1.21,19.43-15.24,31-6.58,13.09,13.71,17.79,7.62,30.74.59,9.56,15.22,9.2,8.56,18.94,0,14.72,18.67,17.73,13.48,33,3.14,31.55,14.33,62.25,30.68,89.32,13.06,8.12.75,24.19,14.33,31.43-8.31,8.64-1.24,22.36-8.85,31.66-8.55,15-28.07,38.59-46.42,37.86-17.53,3.33-33.8-4.37-46.12,10.1-11.37,14.65,14.48,15.69,23.7,12,9.53-8.59,19-3.17,30.28-1.86,11.86.84,24.83-1.81,33.47-10.51,13.81.45,31.32-6.35,33-21.95,13.73-3.29,26.14-17.77,19.55-32.16,4-9.26,19.07-22.81,10.8-36.9,8.93-11.94-7.31-21.7-6.28-31.23.82-13-14.83-17.66-8.86-31.19-3.17-30.63-18.69-58.79-37.68-82.49-9.56-5.84-9.59-20.32-21-25.34-.85-7.14,0-19-8.16-24.85,6.93-11.35-6.19-26.73,11.1-31,5-3.68,6.35-3.32,9.68-8.63Z"/><path id="path3079" class="cls-29" d="M258.17,137.4l-17.87,2.82c9.27-.57,22.34,5.77,28.12,1.16,1.52-4.13-7.78-2.46-10.25-4Zm10.11,20.2c-1.2.12-2.78.51-3.21.1-8.57.25-20.9.91-27.11,3.21l16.93,4.31c5.28-3.11,19.47.89,14.27-6.1,1.13-1.47.32-1.64-.88-1.52Zm8.24,25.55c-12.69.77-25.32,2.28-38,2.79,10,1.47,19.89,3.67,30,1.91C273.25,186.3,282.89,190,276.52,183.15Zm16.4,23c-9.49,1.15-11.88.39-21.88.58-6.57-.19-24.11.19-23.87,1.59,8.48,1.12,16.92,3.29,25.46,1.33C277.36,207.91,302.16,213.11,292.92,206.14Zm14.82,18.16c-16.18,2.41-33,.56-48.76,5.87l18,2.1c8.88-4.77,29.45-.92,32.2-5.9Z"/><path id="path3069" class="cls-29" d="M329.69,305.33c-3.84-.06-8.49.78-11.54.19-12.22,0-23.93,3.79-35.76,6.36,8.18.5,16.5,3.93,24.51.87,8.61-3.55,22.6-2.86,28.34-5.83-1.23-1.19-3.24-1.56-5.55-1.59Zm7.3,24.25c-7.65-.16-17.53,1.55-23.51.49l-17.8,2.82c17.11,0,34.22,0,51.33,0-1.64-2.44-5.43-3.21-10-3.31Zm-3.73,26.27a36.72,36.72,0,0,0-7.29.55l-17.55,4.41c11.62-1.92,23.2,1.53,34.83-.65,6.45,1.19,11.14-4.74,2.11-3.67C341.31,356.4,337.3,355.91,333.26,355.85Zm-20.72,33.2-16,4.31c12.86,1.53,25.76,3.35,38.65.81,5.26-.85,2.46-7.51-2-3C326.49,392.16,319.4,389.32,312.54,389.05Zm-17.83,34.5-17.87,2.82c14.25-1.36,28,3.39,42.25,2.53C322,420.92,299.49,424.82,294.71,423.55Zm-20.92,16.34c-5.9.43-11.74,1.69-17.6,2.6,10.6-.78,21.56,7.42,31,4.08,4.62.34,18-1.48,6.39-2.66C287,442.5,280.6,439.76,273.79,439.89Z"/><path id="path4248" class="cls-3" d="M225.83,156.23c-5.87,1.06-4.53,11.9,1.66,12,4.56,1.26,8.43,2.08,14.21.51,6-4.72-2.23-8.08-6.72-6.86C226.27,162.66,231.27,157.57,225.83,156.23ZM229,184.87c-8.39,3.15-.94,13.67,6.26,11.77,5.85.47,8.87-2.61,12.1-4.06,7.21-7.12-5-8-9.15-3.24C231.5,191.55,233.91,186.16,229,184.87Zm27.37,22c-5.54-.16-9,5.68-14.3,5.45-8.31-1.46-6.21,9.65,1.17,7.17,5.63.94,7.52-4.57,12.9-5C260.54,214.16,261.36,207.2,256.41,206.91Zm10.64,27.47c-3.91,1.52-8.49,6.25-13,3.89-9.43-6.89-6.07,10-.49,7.62,4.87,1.16,11.21-1.83,13.72-3.66C269.27,242.5,273.69,235.05,267.05,234.38Zm-2.5,9.37C263.6,244.32,265.47,243.42,264.55,243.75Zm26.23,81c-8.76,2.81,1,13.65,7.26,13.52,5.57.44,11.7.19,15.5-4.41,5-12.6-16.7,3.84-20.06-7.62l-.78-.82-1.92-.67Zm4,36.15c-6.9,1.77-1.53,12,2,15.34,5.32,3.62,11.93,3.66,18.13,2.9,6-4.7-2.24-8.09-6.72-6.86-4.31.56-9-1.78-9.3-6.55-.83-2-1.34-4.79-4.12-4.83Zm6.94,17.71-.33-.17Zm-32.56,35.24c-6.19,2-3.53,11.55-.06,15.31,2.42,2.81,4.24,6.59,6.58,8.2,3.08,1.81,5.22,4.56,9.05,2.92,5.15-3.74-4.42-8.09-3.15-7.49-3.17-1.45-5.33-6.83-8.11-9.73C271.53,420,274.59,414.15,269.12,413.85Zm6.45,23.44C274.47,436.07,275.3,437.22,275.57,437.29Zm-49.25-3.4c-5.75,2.53-5.77,10.28-5.51,15.76-.8,5.45,1.53,11,6.91,13,8.89,4.6,5.29-9,1.13-7.78-2.43-2.47.15-7.31-.88-10.44-.25-3.54,5.83-9.45-1.65-10.51Zm-40.79,1.75c-4.84,1.47-8.56,7.56-8.37,14-1.08,5.18,1.85,11.88,5.61,12.87,8.44,5.7,9.15-6.08,1.56-7.91-.26-5-.31-10.5,4.39-13.51,1.67-2.27-.43-5.75-3.19-5.49Zm92.87,3.44C278.63,439.09,278.41,439.16,278.4,439.08Zm-50.07,3C228.49,442.06,228.07,442.34,228.33,442.09Z"/><path id="rect3395-8" class="cls-24" d="M279.22,38.74a2.11,2.11,0,0,1,1.7,2.48,42,42,0,0,0-2.38,14.65c-1,3.54-5.5,2-5.13-.84,0,0,2.76-5.05,2.38-14.64S277.51,38.46,279.22,38.74Z"/><path id="path3415-7" class="cls-25" d="M284.49,39.86a6.33,6.33,0,0,1-10.52-7h0a6.33,6.33,0,1,1,10.52,7Z"/><path id="path4292-3" class="cls-30" d="M285.59,70.33a3.54,3.54,0,0,1-7.07,0h0a3.54,3.54,0,0,1,7.07,0Z"/></svg>